# xmcd
#
# Track frame offsets: 
#        150
#        15242
#        29822
#        48288
#        63331
#        80897
#        99524
#        117550
#        134999
#        153001
#        169478
#        182279
#        199881
#        219615
#
# Disc length: 3121 seconds
#
# Revision: 0
# Processed by: cddbd v1.5.2PL0 Copyright (c) Steve Scherf et al.
# Submitted via: ExactAudioCopy v0.99pb3
#
DISCID=c90c2f0e
DTITLE=Susan Brown and Friends - Susan Brown and Friends
DYEAR=2010
DGENRE=Bluegrass
TTITLE0=Jolene
TTITLE1=Living in Our Country World
TTITLE2=Last Train From Poor Valley
TTITLE3=Marie Laveau
TTITLE4=Simle Girl
TTITLE5=Early Morning Rain
TTITLE6=Fever of the Road
TTITLE7=Wichita Lineman
TTITLE8=Coal Town
TTITLE9=How About You
TTITLE10=Welcome to Damascus
TTITLE11=Ready for the Times
TTITLE12=When it Rains
TTITLE13=The Wood Thrush's Song
EXTD=
EXTT0=
EXTT1=
EXTT2=
EXTT3=
EXTT4=
EXTT5=
EXTT6=
EXTT7=
EXTT8=
EXTT9=
EXTT10=
EXTT11=
EXTT12=
EXTT13=
PLAYORDER=
